<svg width="48" height="48" xmlns="http://www.w3.org/2000/svg">

 <g>
  <title>background</title>
  <rect fill="none" id="canvas_background" height="402" width="582" y="-1" x="-1"/>
 </g>
 <g>
  <title>Layer 1</title>
  <path fill="#2ba586" id="svg_3" d="m7.77,28.911c-0.289,0 -0.565,-0.125 -0.756,-0.345l-6.549,-7.556c-0.361,-0.418 -0.316,-1.049 0.101,-1.411c0.418,-0.361 1.048,-0.316 1.411,0.101l5.676,6.55l4.697,-7.284c0.3,-0.465 0.918,-0.596 1.383,-0.299c0.464,0.3 0.598,0.919 0.299,1.383l-5.422,8.403c-0.171,0.265 -0.456,0.434 -0.771,0.455c-0.023,0.002 -0.046,0.003 -0.069,0.003z"/>
  <path fill="#2ba586" id="svg_5" d="m46.78,31.313813c-0.322,0 -0.639,-0.155 -0.831,-0.442l-4.829,-7.197l-5.557,6.652c-0.354,0.425 -0.984,0.481 -1.408,0.127s-0.48,-0.984 -0.127,-1.408l6.411,-7.676c0.201,-0.242 0.499,-0.384 0.82,-0.358c0.313,0.017 0.603,0.181 0.777,0.441l5.572,8.303c0.308,0.459 0.186,1.08 -0.272,1.388c-0.171,0.115 -0.364,0.17 -0.556,0.17z"/>
  <path fill="#2ba586" id="svg_7" d="m24.421374,42.008c-4.669,0 -9.184,-1.82 -12.61,-5.199c-0.394,-0.388 -0.397,-1.021 -0.01,-1.414s1.021,-0.397 1.414,-0.01c3.954,3.898 9.535,5.46 14.929,4.187c7.888,-1.864 13.141,-9.332 12.22,-17.371c-0.063,-0.549 0.331,-1.045 0.879,-1.107c0.554,-0.069 1.045,0.33 1.107,0.879c1.036,9.046 -4.873,17.448 -13.745,19.546c-1.393,0.328 -2.795,0.489 -4.184,0.489z"/>
  <path fill="#2ba586" id="svg_9" d="m7.769,28.911c-0.453,0 -0.863,-0.31 -0.972,-0.77c-1.107,-4.68 -0.325,-9.509 2.2,-13.6c2.526,-4.091 6.495,-6.953 11.174,-8.06c6.471,-1.526 13.222,0.616 17.631,5.595c0.366,0.414 0.327,1.046 -0.086,1.412c-0.413,0.364 -1.045,0.327 -1.412,-0.086c-3.919,-4.427 -9.925,-6.334 -15.672,-4.974c-4.16,0.982 -7.688,3.527 -9.933,7.163s-2.94,7.929 -1.956,12.088c0.127,0.54 -0.206,1.078 -0.743,1.206c-0.078,0.017 -0.155,0.026 -0.231,0.026z"/>
 </g>
</svg>